<?xml version="1.0" encoding="UTF-8" standalone="no"?>
<svg width="352" height="352" viewBox="0 0 352 352" fill="none" xmlns="http://www.w3.org/2000/svg">
<g filter="url(#filter0_f_1743_18866)">
<circle cx="176" cy="176" r="89" fill="#1AC486" fill-opacity="0.2"/>
</g>
<path d="M153.976 224.298H69V243.511H153.976V224.298Z" fill="#18895D"/>
<path opacity="0.45" d="M134.788 224.298H121.082V243.511H134.788V224.298Z" fill="white"/>
<path opacity="0.45" d="M143.012 224.298H137.529V243.511H143.012V224.298Z" fill="white"/>
<path d="M153.976 202.34H69V221.553H153.976V202.34Z" fill="#18895D"/>
<path opacity="0.45" d="M129.305 202.34H115.6V221.553H129.305V202.34Z" fill="white"/>
<path opacity="0.45" d="M137.529 202.34H132.047V221.553H137.529V202.34Z" fill="white"/>
<path d="M153.976 180.383H69V199.596H153.976V180.383Z" fill="#18895D"/>
<path opacity="0.45" d="M134.788 180.383H121.082V199.596H134.788V180.383Z" fill="white"/>
<path opacity="0.45" d="M143.012 180.383H137.529V199.596H143.012V180.383Z" fill="white"/>
<path d="M302 218.809H217.023V238.021H302V218.809Z" fill="#18895D"/>
<path opacity="0.45" d="M282.811 218.809H269.105V238.021H282.811V218.809Z" fill="white"/>
<path opacity="0.45" d="M291.035 218.809H285.553V238.021H291.035V218.809Z" fill="white"/>
<path d="M302 196.851H217.023V216.064H302V196.851Z" fill="#18895D"/>
<path opacity="0.45" d="M277.329 196.851H263.623V216.064H277.329V196.851Z" fill="white"/>
<path opacity="0.45" d="M285.553 196.851H280.07V216.064H285.553V196.851Z" fill="white"/>
<path d="M236.211 229.787H151.234V249H236.211V229.787Z" fill="#1AC486"/>
<path opacity="0.45" d="M217.022 229.787H203.316V249H217.022V229.787Z" fill="white"/>
<path opacity="0.45" d="M225.246 229.787H219.764V249H225.246V229.787Z" fill="white"/>
<path d="M236.211 207.83H151.234V227.043H236.211V207.83Z" fill="#1AC486"/>
<path opacity="0.45" d="M211.54 207.83H197.834V227.043H211.54V207.83Z" fill="white"/>
<path opacity="0.45" d="M219.764 207.83H214.281V227.043H219.764V207.83Z" fill="white"/>
<path d="M236.211 185.873H151.234V205.085H236.211V185.873Z" fill="#1AC486"/>
<path opacity="0.45" d="M217.022 185.873H203.316V205.085H217.022V185.873Z" fill="white"/>
<path opacity="0.45" d="M225.246 185.873H219.764V205.085H225.246V185.873Z" fill="white"/>
<path d="M236.211 163.915H151.234V183.128H236.211V163.915Z" fill="#1AC486"/>
<path opacity="0.45" d="M217.022 163.915H203.316V183.128H217.022V163.915Z" fill="white"/>
<path opacity="0.45" d="M225.246 163.915H219.764V183.128H225.246V163.915Z" fill="white"/>
<path d="M236.211 141.958H151.234V161.17H236.211V141.958Z" fill="#1AC486"/>
<path opacity="0.45" d="M211.54 141.958H197.834V161.17H211.54V141.958Z" fill="white"/>
<path opacity="0.45" d="M219.764 141.958H214.281V161.17H219.764V141.958Z" fill="white"/>
<path d="M176.266 220.957C176.266 242.575 158.745 260.096 137.128 260.096C133.234 260.096 129.464 259.522 125.919 258.464C122.431 257.429 119.145 255.91 116.14 253.986C112.708 251.802 109.636 249.09 107.048 245.973C104.842 243.329 102.985 240.392 101.534 237.218C100.892 235.834 100.341 234.405 99.868 232.931C99.4404 231.592 99.0803 230.207 98.7877 228.801C98.2701 226.258 98 223.636 98 220.935C98 199.317 115.521 181.796 137.139 181.796C139.828 181.796 142.462 182.066 145.005 182.584C146.412 182.876 147.784 183.236 149.135 183.664C150.598 184.137 152.027 184.688 153.422 185.329C156.584 186.781 159.533 188.638 162.177 190.844C165.294 193.432 167.995 196.504 170.19 199.936C172.103 202.941 173.622 206.227 174.668 209.715C175.692 213.294 176.266 217.064 176.266 220.957Z" fill="#000612"/>
<path d="M176.266 216.161C176.266 237.779 158.745 255.3 137.128 255.3C133.234 255.3 129.464 254.726 125.919 253.668C122.431 252.633 119.145 251.114 116.14 249.19C112.708 247.007 109.636 244.294 107.048 241.177C104.842 238.533 102.985 235.596 101.534 232.422C100.892 231.038 100.341 229.609 99.868 228.135C99.4404 226.796 99.0803 225.412 98.7877 224.005C98.2701 221.462 98 218.84 98 216.139C98 194.521 115.521 177 137.139 177C139.828 177 142.462 177.27 145.005 177.788C146.412 178.08 147.784 178.44 149.135 178.868C150.598 179.341 152.027 179.892 153.422 180.534C156.584 181.985 159.533 183.842 162.177 186.048C165.294 188.636 167.995 191.708 170.19 195.14C172.103 198.145 173.622 201.431 174.668 204.919C175.692 208.498 176.266 212.268 176.266 216.161Z" fill="#40F7B4"/>
<path d="M137.126 245.026C153.068 245.026 165.991 232.102 165.991 216.161C165.991 200.22 153.068 187.296 137.126 187.296C121.185 187.296 108.262 200.22 108.262 216.161C108.262 232.102 121.185 245.026 137.126 245.026Z" fill="#03422A"/>
<path d="M137.127 243.394C152.168 243.394 164.36 231.202 164.36 216.162C164.36 201.121 152.168 188.929 137.127 188.929C122.087 188.929 109.895 201.121 109.895 216.162C109.895 231.202 122.087 243.394 137.127 243.394Z" fill="#106E4A"/>
<path opacity="0.1" d="M162.156 186.07L107.038 241.188C104.832 238.544 102.975 235.607 101.523 232.433L153.401 180.556C156.563 182.007 159.511 183.864 162.156 186.07Z" fill="white"/>
<path opacity="0.1" d="M174.636 204.953L165.892 213.708L164.35 215.25L136.217 243.383L134.675 244.925L125.931 253.668C122.443 252.633 119.157 251.114 116.152 249.189L123.658 241.684L124.862 240.479L161.435 203.884L162.651 202.669L170.157 195.163C172.07 198.167 173.589 201.453 174.636 204.953Z" fill="white"/>
<path opacity="0.1" d="M149.114 178.89L140.516 187.488L139.019 188.985L109.964 218.052L108.467 219.548L99.8694 228.146C99.4418 226.807 99.0816 225.423 98.7891 224.016L108.321 214.484L110.121 212.684L135.463 187.342L144.995 177.81L149.114 178.89Z" fill="white"/>
<path d="M141.684 202.796C141.6 202.796 141.6 202.796 141.684 202.796C141.6 202.796 141.6 202.796 141.515 202.796C141.515 202.796 141.515 202.796 141.431 202.796C141.431 202.796 141.431 202.796 141.347 202.796H141.263C141.179 202.796 141.095 202.796 141.011 202.796H125.629C124.2 202.796 123.023 203.979 123.023 205.416C123.023 206.852 124.2 208.035 125.629 208.035H141.011C141.095 208.035 141.179 208.035 141.263 208.035C141.347 208.035 141.431 208.035 141.515 208.035C144.457 208.035 146.811 210.402 146.811 213.359C146.811 216.317 144.457 218.683 141.515 218.683H136.22V216.064H141.515C142.944 216.064 144.121 214.88 144.121 213.444C144.121 212.007 142.944 210.824 141.515 210.824H133.614H129.243C127.815 210.824 126.638 212.007 126.638 213.444C126.638 214.88 127.815 216.064 129.243 216.064H131.009V218.683V224.007V230.176C131.009 231.613 132.185 232.796 133.614 232.796C135.043 232.796 136.22 231.613 136.22 230.176V224.007H141.515C147.315 224.007 152.022 219.275 152.022 213.444C152.106 207.613 147.483 202.88 141.684 202.796Z" fill="white"/>
<defs>
<filter id="filter0_f_1743_18866" x="0" y="0" width="352" height="352" filterUnits="userSpaceOnUse" color-interpolation-filters="sRGB">
<feFlood flood-opacity="0" result="BackgroundImageFix"/>
<feBlend mode="normal" in="SourceGraphic" in2="BackgroundImageFix" result="shape"/>
<feGaussianBlur stdDeviation="43.5" result="effect1_foregroundBlur_1743_18866"/>
</filter>
</defs>
</svg>
